<svg xmlns="http://www.w3.org/2000/svg" viewBox="0 0 98 96" role="img" aria-label="GitHub">
  <rect width="98" height="96" rx="18" fill="#0d1117"/>
  <path fill="#ffffff" d="M49 8C26.4 8 8 26.4 8 49c0 18.1 11.7 33.4 28 38.8 2 .4 2.8-.9 2.8-2v-7c-11.4 2.5-13.8-4.9-13.8-4.9-1.9-4.7-4.6-6-4.6-6-3.7-2.5.3-2.5.3-2.5 4.1.3 6.3 4.2 6.3 4.2 3.7 6.3 9.7 4.5 12.1 3.4.4-2.7 1.4-4.5 2.6-5.5-9.1-1-18.7-4.6-18.7-20.2 0-4.5 1.6-8.1 4.2-11-0.4-1-1.8-5.2.4-10.8 0 0 3.4-1.1 11.2 4.2 3.3-.9 6.7-1.4 10.2-1.4s6.9.5 10.2 1.4c7.8-5.3 11.2-4.2 11.2-4.2 2.2 5.6.8 9.8.4 10.8 2.6 2.9 4.2 6.5 4.2 11 0 15.7-9.6 19.1-18.7 20.1 1.5 1.3 2.8 3.8 2.8 7.7v10.7c0 1.1.7 2.4 2.8 2C78.3 82.4 90 67.1 90 49 90 26.4 71.6 8 49 8Z"/>
</svg>
